<svg width="25" height="24" viewBox="0 0 25 24" fill="none" xmlns="http://www.w3.org/2000/svg">
<path d="M8.5 12.2H15.5" stroke="#DADADA" stroke-width="1.5" stroke-miterlimit="10" stroke-linecap="round" stroke-linejoin="round"/>
<path d="M8.5 16.2H12.88" stroke="#DADADA" stroke-width="1.5" stroke-miterlimit="10" stroke-linecap="round" stroke-linejoin="round"/>
<path d="M10.5 6H14.5C16.5 6 16.5 5 16.5 4C16.5 2 15.5 2 14.5 2H10.5C9.5 2 8.5 2 8.5 4C8.5 6 9.5 6 10.5 6Z" stroke="#DADADA" stroke-width="1.5" stroke-miterlimit="10" stroke-linecap="round" stroke-linejoin="round"/>
<path d="M16.5 4.02002C19.83 4.20002 21.5 5.43002 21.5 10V16C21.5 20 20.5 22 15.5 22H9.5C4.5 22 3.5 20 3.5 16V10C3.5 5.44002 5.17 4.20002 8.5 4.02002" stroke="#DADADA" stroke-width="1.5" stroke-miterlimit="10" stroke-linecap="round" stroke-linejoin="round"/>
</svg>
